<svg width="680" height="620" viewBox="0 0 680 620" xmlns="http://www.w3.org/2000/svg">
<defs>
<marker id="arrow" viewBox="0 0 10 10" refX="8" refY="5" markerWidth="6" markerHeight="6" orient="auto-start-reverse"><path d="M2 1L8 5L2 9" fill="none" stroke="#5f5e5a" stroke-width="1.5" stroke-linecap="round" stroke-linejoin="round"/></marker>
</defs>
<rect width="680" height="620" fill="#ffffff"/>

<rect x="240" y="20" width="200" height="44" rx="8" fill="#F1EFE8" stroke="#5F5E5A" stroke-width="0.5"/>
<text x="340" y="47" text-anchor="middle" font-family="Arial" font-size="14" fill="#2C2C2A">Input 28x28x1</text>
<line x1="340" y1="64" x2="340" y2="96" stroke="#5f5e5a" stroke-width="1.5" marker-end="url(#arrow)"/>

<rect x="220" y="96" width="240" height="56" rx="8" fill="#E6F1FB" stroke="#185FA5" stroke-width="0.5"/>
<text x="340" y="119" text-anchor="middle" font-family="Arial" font-size="14" fill="#0C447C">Conv block 1 (32 filters)</text>
<text x="340" y="137" text-anchor="middle" font-family="Arial" font-size="12" fill="#185FA5">Conv-BN-ReLU x2, pool, dropout</text>
<line x1="340" y1="152" x2="340" y2="184" stroke="#5f5e5a" stroke-width="1.5" marker-end="url(#arrow)"/>

<rect x="220" y="184" width="240" height="56" rx="8" fill="#E6F1FB" stroke="#185FA5" stroke-width="0.5"/>
<text x="340" y="207" text-anchor="middle" font-family="Arial" font-size="14" fill="#0C447C">Conv block 2 (64 filters)</text>
<text x="340" y="225" text-anchor="middle" font-family="Arial" font-size="12" fill="#185FA5">Conv-BN-ReLU x2, pool, dropout</text>
<line x1="340" y1="240" x2="340" y2="272" stroke="#5f5e5a" stroke-width="1.5" marker-end="url(#arrow)"/>

<rect x="220" y="272" width="240" height="56" rx="8" fill="#E6F1FB" stroke="#185FA5" stroke-width="0.5"/>
<text x="340" y="295" text-anchor="middle" font-family="Arial" font-size="14" fill="#0C447C">Conv block 3 (128 filters)</text>
<text x="340" y="313" text-anchor="middle" font-family="Arial" font-size="12" fill="#185FA5">Conv-BN-ReLU x2, pool, dropout</text>
<line x1="340" y1="328" x2="340" y2="360" stroke="#5f5e5a" stroke-width="1.5" marker-end="url(#arrow)"/>

<rect x="220" y="360" width="240" height="44" rx="8" fill="#E1F5EE" stroke="#0F6E56" stroke-width="0.5"/>
<text x="340" y="387" text-anchor="middle" font-family="Arial" font-size="14" fill="#085041">Global average pooling</text>
<line x1="340" y1="404" x2="340" y2="436" stroke="#5f5e5a" stroke-width="1.5" marker-end="url(#arrow)"/>

<rect x="220" y="436" width="240" height="56" rx="8" fill="#EEEDFE" stroke="#534AB7" stroke-width="0.5"/>
<text x="340" y="459" text-anchor="middle" font-family="Arial" font-size="14" fill="#3C3489">Dense 128 + BN + ReLU</text>
<text x="340" y="477" text-anchor="middle" font-family="Arial" font-size="12" fill="#534AB7">Dropout 0.4</text>
<line x1="340" y1="492" x2="340" y2="524" stroke="#5f5e5a" stroke-width="1.5" marker-end="url(#arrow)"/>

<rect x="220" y="524" width="240" height="44" rx="8" fill="#FAECE7" stroke="#993C1D" stroke-width="0.5"/>
<text x="340" y="551" text-anchor="middle" font-family="Arial" font-size="14" fill="#712B13">Softmax, 10 classes</text>
</svg>
